<?xml version="1.0" encoding="utf-8"?>
<!-- Generator: Adobe Illustrator 27.8.1, SVG Export Plug-In . SVG Version: 6.00 Build 0)  -->
<svg version="1.1" id="Layer_1" xmlns="http://www.w3.org/2000/svg" xmlns:xlink="http://www.w3.org/1999/xlink" x="0px" y="0px"
	 viewBox="0 0 186.8 142.7" style="enable-background:new 0 0 186.8 142.7;" xml:space="preserve">
<style type="text/css">
	.st0{fill:#FFFFFF;}
</style>
<polygon class="st0" points="51.4,35.6 51.2,36.7 53.6,34.9 "/>
<polygon class="st0" points="44.7,37.7 45.6,38 45.8,37.1 "/>
<g>
	<path class="st0" d="M94.6,32.7c-3.8,1.2-7.5,1.9-7.5,1.9c-1.1,0.3-1.8-0.4-1.8-0.4l-7,3.8c-0.1,0.1-0.4,0.2-0.7,0.4l12,16.6
		L94.6,32.7z"/>
	<path class="st0" d="M79.6,99.9L83,84.5L57.5,53.7c-0.6,0.6-1,0.9-1,0.9c-3.5,2.5-4.4,6-4.4,6c-0.3,1.5-0.8,1-0.8,1l0,2.8
		l14.2,17.8l4.9-1.4l1.6,1.6l0.5,2.6l-3.9,1.2L79.6,99.9z"/>
	<polygon class="st0" points="51.6,95.8 52.1,95.4 58.2,89.3 51.4,91.6 	"/>
	<polygon class="st0" points="51.3,65.2 51.6,85.2 52.1,86.1 64.9,82.3 	"/>
	<path class="st0" d="M43.6,36.1c0.6-0.1,1.3,0.3,1.3,0.3l1.3-0.6l0.1-5.6c0.1-0.6,0.7-0.9,0.7-0.9c0.3-0.6,2-0.6,2-0.6
		c1.6-0.2,2.1,1.1,2.1,1.1l-0.1,3.3c0,0.4,0.3,0.3,0.3,0.3l4.9-2c0.1-0.4,0.3-0.6,0.5-0.7l-0.8-1c-0.5,0.2-1.2-0.3-1.7-1
		c-0.4-0.6-0.5-1.2-0.3-1.6L42.6,12.2c-4.2,2.5-8.2,5.4-11.7,8.5l9.6,11.6c0,0,0,0,0,0c0.5-0.2,1.3,0.2,1.8,1
		c0.4,0.6,0.4,1.2,0.3,1.5L43.6,36.1z"/>
	<path class="st0" d="M36,45.2c0.5,0,1,0.4,1.4,1.1c0.3,0.4,0.4,0.8,0.4,1.2l7.2,9l0.9-16.9l-1.4-1.1l-9.8,4.7l0.2,0.6l0,0L36,45.2z
		"/>
	<path class="st0" d="M68.2,45l18.3,24l3-13.3L77.2,38.7C74.9,40.2,69.9,43.7,68.2,45z"/>
	<path class="st0" d="M65.7,22c0,0,0.1-0.1,0.1-0.1c0.5-0.2,1.3,0.2,1.8,1c0.5,0.8,0.5,1.5,0,1.8l1,1.4c1-1.5,2.6-0.4,2.6-0.4
		l0.4-0.1c0.5-0.1,1,2,1,2l-2.1,0.8c0,0.2,0,0.3-0.1,0.3l0.6,0.8c0.1-0.1,0.1-0.2,0.2-0.2c0.5-0.2,1.3,0.2,1.8,1
		c0.5,0.8,0.5,1.6,0,1.8c0,0-0.1,0-0.1,0l4.3,5.9c4.1-2.5,7.5-4.5,7.5-4.5c0.2-0.1,0.4-0.3,0.4-0.3c-0.5-0.7,0.6-1.4,0.6-1.4
		c0.3-1,9.7-7.6,9.7-7.6c1-0.8,2.4-1,2.4-1c4.9-0.2,4.5,3.9,4.5,3.9c0.1,0.3,0.1,0.5,0,0.8l54.2,64.7c6.4-9,10-19.4,10-30.5
		C166.6,27.8,131.7,0,88.8,0c-12.4,0-24,2.3-34.4,6.4L65.7,22z"/>
	<path class="st0" d="M86.4,69.6L67.8,45.3c-0.1,0.1-0.2,0.2-0.2,0.2c-1.2,0.5-7,5.5-9.7,7.9l25.3,30.6L86.4,69.6z"/>
	<path class="st0" d="M58.6,33.1l-2.7,1.1l-4.8,5.2l0.1,5.8l6,7.3c3.3-2.7,7.3-5.8,7.3-5.8c0.4-0.5,1.4-1.3,2.7-2.2l-5.7-7.4
		c0,0-0.1,0.1-0.1,0.1c-0.5,0.2-1.3-0.2-1.8-1c-0.4-0.7-0.5-1.4-0.1-1.7L58.6,33.1z"/>
	<path class="st0" d="M23.1,29.1l6.8,8.6c0.4,0.1,0.9,0.5,1.2,1c0.2,0.3,0.3,0.6,0.3,0.9l1.7,2.1c0,0,0.1,0.1,0.1,0.1l9.2-4.3
		c0.1-0.6,0.4-1,0.7-1.2l-0.9-1.1c-0.5,0.1-1.2-0.3-1.7-1c-0.3-0.5-0.4-1-0.3-1.3L30.5,21c-2.8,2.6-5.4,5.3-7.7,8.3L23.1,29.1z"/>
	<path class="st0" d="M79.5,100.5L68.1,86.3L60,88.7l-8.4,9.6l0.4,18.6c6.9,3,14.4,5.1,22.4,6.3L79.5,100.5z"/>
	<polygon class="st0" points="43.2,95.7 43,92.6 39.4,93.9 	"/>
	<path class="st0" d="M42.5,107.1l0.6-10.4l-3.9-1.2l-8.4,2.8l-1.4-1.4l0.3-3.1l13.6-4.3l1.4-27.8l0.2-4.4L37.6,48
		c0,0-0.1,0.1-0.1,0.1c-0.5,0.2-1.3-0.2-1.8-1c-0.4-0.7-0.4-1.4-0.1-1.7L34.4,44l-0.3,0.1l-0.8-0.4l-2.9,1.1l-1-0.7l0.3-1.1l0.9-0.4
		c0.5-1,1.1-1.2,1.6-1.2l-0.9-1.1c-0.1,0.1-0.1,0.2-0.3,0.2c-0.5,0.2-1.3-0.2-1.8-1c-0.5-0.8-0.5-1.5,0-1.8l-6.6-8.3
		C15.3,38.9,11,50.1,11,62.2c0,20.3,12.2,38.3,31.1,49.6L42.5,107.1z"/>
	<path class="st0" d="M65.9,23.7c-0.2-0.4-0.4-0.8-0.4-1.1l-11.6-16c-3.8,1.5-7.5,3.3-10.9,5.3l11.3,14.8c0.5-0.1,1.2,0.3,1.6,1
		c0.3,0.5,0.4,1.1,0.3,1.5l0.9,1.2c0.5,0,1,0.3,1,0.3l10.2-4c0,0,0-0.1,0.1-0.1l-1.3-1.8C66.6,24.6,66.2,24.2,65.9,23.7z"/>
	<path class="st0" d="M52.8,56.5c0.2-0.4,1.9-1.9,4-3.6L51.2,46l0.2,10.9C51.2,58.2,52.8,56.5,52.8,56.5z"/>
	<path class="st0" d="M71.4,31.1c-0.2-0.3-0.3-0.6-0.3-0.8l-1.4-1.9L59,32.9l1,1.4c0.5,0,1,0.4,1.4,1.1c0.3,0.4,0.4,0.9,0.3,1.2
		l5.8,7.6c2.5-1.8,6-4,9.3-5.9L72.3,32C72,31.8,71.6,31.5,71.4,31.1z"/>
</g>
<rect x="0" y="125.7" class="st0" width="170.4" height="1.9"/>
<g>
	<path class="st0" d="M1.2,133l1,0l-0.1,0.8l0,0c0.4-0.6,1-1,1.9-1c1.2,0,1.9,0.6,1.9,1.9l0,0.5l-1,0l0-0.2c0-0.2,0-0.3,0-0.4
		c0-0.7-0.4-1-1.1-1c-1.1,0-1.6,0.7-1.6,2l0,4l-1,0L1.2,133z"/>
	<path class="st0" d="M15.3,137.7l1,0l0,0.2c0,0.7-0.2,1.2-0.6,1.5c-0.4,0.3-1.2,0.4-2.2,0.4c-1.2,0-2-0.2-2.4-0.7
		c-0.4-0.5-0.6-1.4-0.6-2.8c0-1.3,0.2-2.2,0.6-2.7c0.4-0.5,1.1-0.7,2.3-0.7c1.2,0,2,0.2,2.4,0.6c0.4,0.4,0.6,1.2,0.6,2.5v0.5l-4.8,0
		c0,1.1,0.1,1.7,0.3,2c0.2,0.3,0.8,0.4,1.6,0.4c0.8,0,1.3-0.1,1.5-0.2c0.2-0.1,0.4-0.4,0.4-0.9V137.7z M15.3,135.8l0-0.3
		c0-0.7-0.1-1.2-0.4-1.4c-0.2-0.2-0.8-0.3-1.5-0.3c-0.8,0-1.3,0.1-1.5,0.4c-0.2,0.3-0.4,0.8-0.4,1.7L15.3,135.8z"/>
	<path class="st0" d="M21.5,133l1,0l0,0.9l0,0c0.3-0.6,1.1-1,2.2-1c1,0,1.7,0.3,2.1,0.8c0.4,0.5,0.6,1.4,0.6,2.8
		c0,1.3-0.2,2.1-0.6,2.6c-0.4,0.5-1.1,0.7-2,0.7c-1.1,0-1.8-0.3-2.2-0.9h0l0,3.7l-1,0L21.5,133z M24.4,133.7c-0.8,0-1.3,0.2-1.5,0.5
		c-0.2,0.3-0.4,1.1-0.4,2.2c0,1,0.1,1.7,0.4,2.1c0.3,0.3,0.8,0.5,1.6,0.5c0.7,0,1.2-0.2,1.5-0.5c0.2-0.3,0.4-1,0.4-2.1
		c0-1.1-0.1-1.9-0.3-2.2C25.7,133.9,25.2,133.7,24.4,133.7z"/>
	<path class="st0" d="M37.3,137.7h1l0,0.2c0,0.7-0.2,1.2-0.6,1.5c-0.4,0.3-1.2,0.4-2.2,0.4c-1.2,0-2-0.2-2.4-0.7
		c-0.4-0.5-0.6-1.4-0.6-2.8c0-1.3,0.2-2.2,0.6-2.7c0.4-0.5,1.1-0.7,2.3-0.7c1.2,0,2,0.2,2.4,0.6c0.4,0.4,0.6,1.2,0.6,2.5v0.5l-4.8,0
		c0,1.1,0.1,1.7,0.3,2c0.2,0.3,0.8,0.4,1.6,0.4c0.8,0,1.3-0.1,1.5-0.2c0.2-0.1,0.4-0.4,0.4-0.9V137.7z M37.3,135.8l0-0.3
		c0-0.7-0.1-1.2-0.4-1.4c-0.2-0.2-0.8-0.3-1.5-0.3c-0.8,0-1.3,0.1-1.5,0.4c-0.2,0.3-0.4,0.8-0.4,1.7L37.3,135.8z"/>
	<path class="st0" d="M43.7,133l1,0l-0.1,0.8l0,0c0.4-0.6,1-1,1.9-1c1.2,0,1.9,0.6,1.9,1.9l0,0.5l-1,0l0-0.2c0-0.2,0-0.3,0-0.4
		c0-0.7-0.4-1-1.1-1c-1.1,0-1.6,0.7-1.6,2l0,4l-1,0L43.7,133z"/>
	<path class="st0" d="M56.6,133v0.8l-2.6,0l0,4.1c0,0.7,0.3,1.1,1,1.1c0.6,0,0.9-0.3,0.9-1l0-0.3l0-0.4l0.9,0l0,0.5
		c0,1.3-0.6,2-1.9,2c-1.3,0-1.9-0.5-1.9-1.6l0-0.2l0-4.1l-0.9,0V133l0.9,0l0-1.6l1,0l0,1.6L56.6,133z"/>
	<path class="st0" d="M64.3,132.9c1.2,0,2,0.2,2.4,0.6c0.4,0.4,0.6,1.4,0.6,2.8c0,1.4-0.2,2.4-0.6,2.8c-0.4,0.4-1.2,0.6-2.4,0.6
		c-1.2,0-2-0.2-2.4-0.6c-0.4-0.4-0.6-1.4-0.6-2.8c0-1.4,0.2-2.4,0.6-2.8C62.2,133.1,63,132.9,64.3,132.9z M64.3,133.7
		c-0.9,0-1.4,0.1-1.6,0.4c-0.2,0.3-0.3,1-0.3,2.2c0,1.2,0.1,1.9,0.3,2.2c0.2,0.3,0.8,0.4,1.6,0.4c0.9,0,1.4-0.1,1.6-0.4
		c0.2-0.3,0.3-1,0.3-2.2c0-1.2-0.1-1.9-0.3-2.2C65.7,133.8,65.2,133.7,64.3,133.7z"/>
	<path class="st0" d="M72.6,133l1,0l-0.1,0.8l0,0c0.4-0.6,1-0.9,1.9-1c1.2,0,1.9,0.6,1.9,1.9l0,0.5h-1l0-0.2c0-0.2,0-0.3,0-0.4
		c0-0.7-0.4-1-1.1-1c-1.1,0-1.6,0.7-1.6,2l0,4l-1,0L72.6,133z"/>
	<path class="st0" d="M86.8,133l-1.9,7.1c-0.3,1-0.6,1.7-0.9,2.1c-0.3,0.4-0.8,0.6-1.4,0.6c-0.1,0-0.3,0-0.5-0.1l0-0.8
		c0.1,0,0.3,0.1,0.3,0.1c0.5,0,0.9-0.4,1.2-1.3l0.2-0.7c0,0,0-0.1,0.1-0.3h-0.4l-2.4-6.7l1,0l1,3l0.5,1.5l0.3,0.8l0.3,0.7h0l0.2-0.7
		l0.2-0.8L85,136l0.8-3L86.8,133z"/>
	<path class="st0" d="M102.2,133v0.8l-2.6,0l0,4.1c0,0.7,0.3,1.1,1,1.1c0.6,0,0.9-0.3,0.9-1l0-0.3l0-0.4h0.9l0,0.5
		c0,1.3-0.6,2-1.9,2c-1.3,0-1.9-0.5-1.9-1.6v-0.2l0-4.1l-0.9,0V133l0.9,0l0-1.6h1l0,1.6L102.2,133z"/>
	<path class="st0" d="M108.1,130.1l0,3.7l0,0c0.2-0.6,0.9-0.9,2.1-0.9c1.7,0,2.5,0.7,2.5,2.2v0.3l0,4.3l-1,0l0-4.3v-0.2
		c0-1-0.5-1.5-1.6-1.5c-0.8,0-1.4,0.1-1.7,0.4c-0.3,0.3-0.4,0.9-0.4,1.8l0,3.8h-1l0-9.6H108.1z"/>
	<path class="st0" d="M122.9,137.6l1,0l0,0.2c0,0.7-0.2,1.2-0.6,1.5c-0.4,0.3-1.2,0.4-2.2,0.4c-1.2,0-2-0.2-2.4-0.7
		c-0.4-0.5-0.6-1.4-0.6-2.8c0-1.3,0.2-2.2,0.6-2.7c0.4-0.5,1.1-0.7,2.3-0.7c1.2,0,2,0.2,2.4,0.6c0.4,0.4,0.6,1.2,0.6,2.5v0.5l-4.8,0
		c0,1.1,0.1,1.7,0.3,2c0.2,0.3,0.8,0.4,1.6,0.4c0.8,0,1.3-0.1,1.5-0.2c0.2-0.1,0.4-0.4,0.4-0.9V137.6z M122.9,135.7l0-0.3
		c0-0.7-0.1-1.2-0.4-1.4c-0.2-0.2-0.8-0.3-1.5-0.3c-0.8,0-1.3,0.1-1.5,0.4c-0.2,0.3-0.4,0.8-0.4,1.7L122.9,135.7z"/>
	<path class="st0" d="M130.2,134.8h-1c0-0.8,0.2-1.3,0.5-1.6c0.4-0.3,1-0.4,2.1-0.4c1.1,0,1.9,0.2,2.3,0.5c0.4,0.3,0.6,1,0.6,1.9
		l0,4.4l-1,0l0.1-0.7l0,0c-0.4,0.5-1.1,0.8-2.3,0.8c-1.7,0-2.5-0.7-2.5-2c0-0.8,0.2-1.4,0.6-1.7c0.4-0.3,1.1-0.5,2.1-0.5
		c1.2,0,1.9,0.2,2.1,0.7l0,0l0-0.8c0-0.8-0.1-1.3-0.3-1.5c-0.2-0.2-0.7-0.3-1.4-0.3c-1.2,0-1.8,0.3-1.8,1
		C130.2,134.7,130.2,134.7,130.2,134.8z M131.8,136.3c-0.8,0-1.2,0.1-1.5,0.2c-0.2,0.2-0.3,0.5-0.3,1c0,0.5,0.1,0.9,0.3,1.1
		c0.2,0.2,0.7,0.3,1.4,0.3c1.4,0,2.1-0.4,2.1-1.3c0-0.5-0.1-0.9-0.4-1.1C133.1,136.4,132.6,136.3,131.8,136.3z"/>
	<path class="st0" d="M143.9,132.9v0.8l-2.6,0l0,4.1c0,0.7,0.3,1.1,1,1.1c0.6,0,0.9-0.3,0.9-1l0-0.3l0-0.4h0.9l0,0.5
		c0,1.3-0.6,2-1.9,2c-1.3,0-1.9-0.5-1.9-1.6v-0.2l0-4.1l-0.9,0v-0.8l0.9,0l0-1.6h1l0,1.6L143.9,132.9z"/>
	<path class="st0" d="M153.4,137.6l1,0l0,0.2c0,0.7-0.2,1.2-0.6,1.5c-0.4,0.3-1.2,0.4-2.2,0.4c-1.2,0-2-0.2-2.4-0.7
		c-0.4-0.5-0.6-1.4-0.6-2.8c0-1.3,0.2-2.2,0.6-2.7c0.4-0.5,1.1-0.7,2.3-0.7c1.2,0,2,0.2,2.4,0.6c0.4,0.4,0.6,1.2,0.6,2.5v0.5l-4.8,0
		c0,1.1,0.1,1.7,0.3,2c0.2,0.3,0.8,0.4,1.6,0.4c0.8,0,1.3-0.1,1.5-0.2c0.2-0.1,0.4-0.4,0.4-0.9V137.6z M153.4,135.7l0-0.3
		c0-0.7-0.1-1.2-0.4-1.4c-0.2-0.2-0.8-0.3-1.5-0.3c-0.8,0-1.3,0.1-1.5,0.4c-0.2,0.3-0.4,0.8-0.4,1.7L153.4,135.7z"/>
	<path class="st0" d="M159.8,132.9l1,0l-0.1,0.8l0,0c0.4-0.6,1-1,1.9-1c1.2,0,1.9,0.6,1.9,1.9l0,0.5l-1,0l0-0.2c0-0.2,0-0.3,0-0.4
		c0-0.7-0.4-1-1.1-1c-1.1,0-1.6,0.7-1.6,2l0,4l-1,0L159.8,132.9z"/>
</g>
<g>
	<path class="st0" d="M91.8,103.8l-3.9,0c0-3.1,0.7-5.2,2.1-6.3c1.4-1.1,4.2-1.6,8.3-1.6c4.5,0,7.5,0.7,9.1,2
		c1.6,1.3,2.4,3.8,2.4,7.6l0,17.7l-3.9,0l0.3-2.9l-0.1,0c-1.5,2.2-4.5,3.3-9.1,3.3c-6.8,0-10.2-2.7-10.2-8.1c0-3.2,0.8-5.5,2.3-6.7
		c1.5-1.2,4.3-1.9,8.2-1.9c4.7,0,7.5,0.9,8.5,2.7l0.1,0l0-3.3c0-3.1-0.4-5.1-1.3-6c-0.8-0.9-2.7-1.4-5.5-1.4c-4.8,0-7.3,1.4-7.3,4.1
		C91.7,103.2,91.7,103.4,91.8,103.8z M98.1,109.9c-3,0-5,0.3-5.9,1c-0.9,0.6-1.4,2-1.4,4.1c0,2.2,0.5,3.6,1.3,4.3
		c0.9,0.7,2.7,1,5.5,1c5.5,0,8.3-1.7,8.3-5c0-2.1-0.5-3.5-1.6-4.2C103.3,110.3,101.2,109.9,98.1,109.9z"/>
	<path class="st0" d="M120.9,84.8l0,38.4l-3.9,0l0-38.4L120.9,84.8z"/>
	<path class="st0" d="M131.8,84.8l0,38.4l-3.9,0l0-38.4L131.8,84.8z"/>
	<path class="st0" d="M157.4,115l4,0l0,1c0,2.8-0.8,4.7-2.5,5.9c-1.7,1.1-4.7,1.7-8.9,1.7c-4.9,0-8.2-0.9-9.7-2.7
		c-1.5-1.8-2.3-5.6-2.3-11.4c0-5.4,0.8-8.9,2.3-10.8c1.6-1.8,4.6-2.8,9.1-2.8c4.9,0,8.2,0.8,9.7,2.4c1.5,1.6,2.3,4.9,2.3,10.1l0,2.1
		l-19.3,0c0,4.2,0.5,6.9,1.4,8.1c0.9,1.2,3,1.7,6.4,1.7c3.2,0,5.2-0.3,6.2-0.8c0.9-0.6,1.4-1.7,1.4-3.6V115z M157.4,107.4l0-1.3
		c0-2.9-0.5-4.8-1.4-5.7c-1-0.9-3-1.3-6.2-1.3c-3.2,0-5.3,0.5-6.2,1.5c-0.9,1-1.4,3.3-1.4,6.7L157.4,107.4z"/>
	<path class="st0" d="M186.8,96.2l-7.6,28.4c-1.1,4-2.2,6.8-3.5,8.3c-1.3,1.5-3.2,2.3-5.6,2.3c-0.5,0-1.1-0.1-1.9-0.2l0-3.3
		c0.5,0.1,1,0.2,1.4,0.2c2.1,0.1,3.7-1.6,4.7-5.2l0.8-2.6c0-0.1,0.1-0.4,0.3-1l-1.5,0L164,96.2l4.2,0l4.1,12l2.1,6l1,3l1,3l0.1,0
		l0.7-3l0.7-3l1.5-6l3-12L186.8,96.2z"/>
</g>
</svg>
