<?xml version="1.0" encoding="utf-8"?>
<!-- Generator: Adobe Illustrator 27.8.1, SVG Export Plug-In . SVG Version: 6.00 Build 0)  -->
<svg version="1.1" id="Layer_1" xmlns="http://www.w3.org/2000/svg" xmlns:xlink="http://www.w3.org/1999/xlink" x="0px" y="0px"
	 viewBox="0 0 275.6 275.6" style="enable-background:new 0 0 275.6 275.6;" xml:space="preserve">
<style type="text/css">
	.st0{fill:#FFFFFF;}
</style>
<g>
	<polygon class="st0" points="163.6,190.4 207.3,190.4 185.4,152.5 	"/>
	<polygon class="st0" points="157.7,104.5 133.9,145.8 157.7,187.1 181.6,145.8 	"/>
	<polygon class="st0" points="100.4,101.2 52.3,101.2 102.1,187.4 126.1,145.8 	"/>
	<polygon class="st0" points="108.1,190.4 151.9,190.4 130,152.5 	"/>
	<path class="st0" d="M137.8,0C61.7,0,0,61.7,0,137.8c0,76.1,61.7,137.8,137.8,137.8c76.1,0,137.8-61.7,137.8-137.8
		C275.6,61.7,213.9,0,137.8,0z M216.1,192.1c0.6,1,0.6,2.3,0,3.4c-0.6,1-1.7,1.7-2.9,1.7H102.3c-0.1,0-0.1,0-0.2,0
		c-0.1,0-0.1,0-0.2,0c-1.2,0-2.3-0.6-2.9-1.7l-55.4-96c-0.6-1-0.6-2.3,0-3.4c0.6-1,1.7-1.7,2.9-1.7l56.1,0c0.1,0,0.2,0,0.2,0
		c0.1,0,0.2,0,0.3,0.1c0.1,0,0.2,0.1,0.3,0.1c0.1,0,0.2,0.1,0.3,0.1c0.1,0,0.2,0.1,0.3,0.1c0.1,0.1,0.2,0.1,0.3,0.2
		c0.1,0.1,0.2,0.1,0.2,0.2c0.1,0.1,0.2,0.2,0.2,0.2c0.1,0.1,0.1,0.1,0.2,0.2c0.1,0.1,0.1,0.1,0.2,0.2l0.1,0.2l24.8,42.9L155,95.9
		c0.1-0.2,0.2-0.3,0.3-0.4l0.2-0.2c0.2-0.1,0.3-0.3,0.5-0.4l0.2-0.1c0.2-0.1,0.4-0.2,0.5-0.2c0.1,0,0.1,0,0.2-0.1
		c0.3-0.1,0.5-0.1,0.8-0.1h55.4c1.2,0,2.3,0.6,2.9,1.7c0.6,1,0.6,2.3,0,3.4l-26.7,46.3L216.1,192.1z"/>
	<polygon class="st0" points="185.4,139.1 207.3,101.2 163.6,101.2 	"/>
</g>
</svg>
